<svg width="475" height="439" viewBox="0 0 475 439" fill="none" xmlns="http://www.w3.org/2000/svg">
<path d="M449.679 219.703L239.674 25.6228C239.293 25.2705 238.705 25.2685 238.322 25.6181L25.3265 219.703C25.1185 219.892 25 220.16 25 220.442V413C25 413.552 25.4477 414 26 414H163C163.552 414 164 413.552 164 413V324C164 324 164 257 239 257C315 257 315 324 315 324V413C315 413.552 315.448 414 316 414H449C449.552 414 450 413.552 450 413V220.437C450 220.159 449.884 219.892 449.679 219.703Z" fill="#00DDDD" stroke="#00DDDD" stroke-width="50"/>
</svg>
