<svg width="475" height="439" viewBox="0 0 475 439" fill="none" xmlns="http://www.w3.org/2000/svg">
<path d="M449.679 219.703L239.674 25.6228C239.293 25.2705 238.705 25.2685 238.322 25.6181L25.3265 219.703C25.1185 219.892 25 220.16 25 220.442V413C25 413.552 25.4477 414 26 414H183C183.552 414 184 413.552 184 413V324C185.667 308.333 199 277 239 277C279 277 293 308.333 295 324V413C295 413.552 295.448 414 296 414H449C449.552 414 450 413.552 450 413V220.437C450 220.159 449.884 219.892 449.679 219.703Z" stroke="white" stroke-width="50"/>
</svg>
